# xmcd CD database file
#
# Track frame offsets:
#	182
#	17057
#	35802
#	84230
#	107507
#	140855
#	172562
#	211432
#	250917
#	291685
#
# Disc length: 4294 seconds
#
# Revision: 3
# Processed by: cddbd v1.5.2PL0 Copyright (c) Steve Scherf et al.
# Submitted via: CDex 1.50
#
DISCID=8d10c40a
DTITLE=Albert King - Albert King Live
DYEAR=1989
DGENRE=Blues
TTITLE0=Watermelon Man
TTITLE1=Don't Burn Down The Bridge
TTITLE2=Blues At Sunrise
TTITLE3=That's What The Blues Is All About
TTITLE4=Stormy Monday
TTITLE5=Kansas City
TTITLE6=I'm Gonna Call You As Soon As The Sun Goes Down
TTITLE7=Matchbox Holds My Clothes
TTITLE8=As The Years Go Passing By
TTITLE9=I'll Play The Blues For You
EXTD=Blues YEAR: 1989
EXTT0=
EXTT1=
EXTT2=
EXTT3=
EXTT4=
EXTT5=
EXTT6=
EXTT7=
EXTT8=
EXTT9=
PLAYORDER=
